<svg width="1920" height="1080" viewBox="0 0 1920 1080" fill="none" xmlns="http://www.w3.org/2000/svg">
<g clip-path="url(#clip0_88_5)">
<rect width="1920" height="1080" rx="20" fill="#355C7D"/>
<rect width="1920" height="1080" rx="10" fill="url(#paint0_linear_88_5)"/>
<ellipse cx="614.636" cy="559.141" rx="250.479" ry="250" transform="rotate(122.344 614.636 559.141)" fill="#B26178"/>
<g opacity="0.5">
<rect width="568.527" height="997.986" transform="translate(-350.755 239) rotate(-55.2926)" fill="url(#paint1_linear_88_5)"/>
</g>
<rect width="500" height="997.986" transform="translate(-330 209.035) rotate(-55.2926)" fill="url(#paint2_linear_88_5)"/>
<circle cx="819" cy="73" r="125" transform="rotate(126.219 819 73)" fill="url(#paint3_linear_88_5)"/>
<rect width="224.422" height="534.113" transform="translate(316 -123.874) rotate(-55.2926)" fill="url(#paint4_linear_88_5)"/>
<circle cx="1632.62" cy="961.621" r="125" transform="rotate(-177.841 1632.62 961.621)" fill="#C06C84"/>
<circle cx="137" cy="927.698" r="125" transform="rotate(124.088 137 927.698)" fill="url(#paint5_linear_88_5)"/>
<rect width="249.156" height="534.113" transform="translate(-366 730.823) rotate(-55.2926)" fill="url(#paint6_linear_88_5)"/>
<rect width="249.156" height="534.113" transform="translate(2127.85 1177.31) rotate(126.867)" fill="#C06C84"/>
<path opacity="0.5" d="M792.941 340.345C912.683 432.799 939.408 604.077 851.417 728.954C764.311 852.576 596.559 885.63 469.646 807.068L792.941 340.345Z" fill="#D37791"/>
</g>
<defs>
<linearGradient id="paint0_linear_88_5" x1="9.74657e-08" y1="534.441" x2="1920" y2="545.559" gradientUnits="userSpaceOnUse">
<stop stop-color="#355C7D"/>
<stop offset="0.5" stop-color="#6C5B7B"/>
<stop offset="1" stop-color="#C06C84"/>
</linearGradient>
<linearGradient id="paint1_linear_88_5" x1="109.396" y1="3.67548e-05" x2="74.8952" y2="984.521" gradientUnits="userSpaceOnUse">
<stop stop-color="#355C7D"/>
<stop offset="0.495192" stop-color="#6C5B7B"/>
<stop offset="1" stop-color="#D37791"/>
</linearGradient>
<linearGradient id="paint2_linear_88_5" x1="250" y1="0" x2="250" y2="997.986" gradientUnits="userSpaceOnUse">
<stop stop-color="#355C7D"/>
<stop offset="0.495192" stop-color="#6C5B7B"/>
<stop offset="1" stop-color="#C06C84"/>
</linearGradient>
<linearGradient id="paint3_linear_88_5" x1="819" y1="-52" x2="819" y2="198" gradientUnits="userSpaceOnUse">
<stop stop-color="#C06C84"/>
<stop offset="0.495192" stop-color="#C06C84"/>
<stop offset="1" stop-color="#C06C84"/>
</linearGradient>
<linearGradient id="paint4_linear_88_5" x1="112.211" y1="0" x2="112.211" y2="534.113" gradientUnits="userSpaceOnUse">
<stop stop-color="#355C7D"/>
<stop offset="0.495192" stop-color="#6C5B7B"/>
<stop offset="1" stop-color="#C06C84"/>
</linearGradient>
<linearGradient id="paint5_linear_88_5" x1="137" y1="802.698" x2="137" y2="1052.7" gradientUnits="userSpaceOnUse">
<stop stop-color="#C06C84"/>
<stop offset="0.495192" stop-color="#C06C84"/>
<stop offset="1" stop-color="#C06C84"/>
</linearGradient>
<linearGradient id="paint6_linear_88_5" x1="124.578" y1="0" x2="124.578" y2="534.113" gradientUnits="userSpaceOnUse">
<stop stop-color="#355C7D"/>
<stop offset="0.495192" stop-color="#6C5B7B"/>
<stop offset="1" stop-color="#C06C84"/>
</linearGradient>
<clipPath id="clip0_88_5">
<rect width="1920" height="1080" rx="20" fill="white"/>
</clipPath>
</defs>
</svg>
